# xmcd
#
# Track frame offsets: 
#        150
#        20988
#        47427
#        65879
#        97236
#        122943
#        146247
#        166876
#        187916
#        204989
#
# Disc length: 2803 seconds
#
# Revision: 0
# Processed by: cddbd v1.5.2PL0 Copyright (c) Steve Scherf et al.
# Submitted via: ExactAudioCopy v0.95b4
#
DISCID=980af10a
DTITLE=West Bank Mike and the Fisher Project - Muse in the Kitchen
DYEAR=2006
DGENRE=Blues
TTITLE0=Free
TTITLE1=Good Intentions
TTITLE2=Life Story pt. 1
TTITLE3=Home to You
TTITLE4=Chicago Southside
TTITLE5=Ballerina
TTITLE6=Two Headed Woman
TTITLE7=Keeps Me Travellin' On
TTITLE8=Searchin' for Salvation
TTITLE9=Stay Here for a While
EXTD=
EXTT0=
EXTT1=
EXTT2=
EXTT3=
EXTT4=
EXTT5=
EXTT6=
EXTT7=
EXTT8=
EXTT9=
PLAYORDER=
